<svg width="1200" height="900" viewBox="0 0 1200 900" fill="none" xmlns="http://www.w3.org/2000/svg">
  <rect width="1200" height="900" rx="48" fill="#07101E"/>
  <rect x="64" y="64" width="1072" height="772" rx="34" fill="#0B1730"/>
  <rect x="116" y="126" width="968" height="648" rx="30" fill="url(#panel)"/>
  <rect x="170" y="186" width="380" height="420" rx="28" fill="#102344"/>
  <rect x="610" y="186" width="420" height="240" rx="28" fill="#13284F"/>
  <rect x="610" y="460" width="420" height="146" rx="28" fill="#0F1F3B"/>
  <circle cx="858" cy="300" r="110" fill="url(#orb)"/>
  <path d="M260 540C344 450 405 411 495 420" stroke="#90ABFF" stroke-width="10" stroke-linecap="round"/>
  <rect x="220" y="240" width="290" height="28" rx="14" fill="#EDF2FF" fill-opacity="0.86"/>
  <rect x="220" y="290" width="190" height="18" rx="9" fill="#EDF2FF" fill-opacity="0.3"/>
  <rect x="220" y="656" width="814" height="32" rx="16" fill="#EDF2FF" fill-opacity="0.14"/>
  <defs>
    <linearGradient id="panel" x1="150" y1="146" x2="988" y2="754" gradientUnits="userSpaceOnUse">
      <stop stop-color="#0D1B34"/>
      <stop offset="1" stop-color="#0E1830"/>
    </linearGradient>
    <radialGradient id="orb" cx="0" cy="0" r="1" gradientUnits="userSpaceOnUse" gradientTransform="translate(858 300) rotate(90) scale(110)">
      <stop stop-color="#7A67FF"/>
      <stop offset="1" stop-color="#7A67FF" stop-opacity="0"/>
    </radialGradient>
  </defs>
</svg>
