<svg width="1200" height="900" viewBox="0 0 1200 900" fill="none" xmlns="http://www.w3.org/2000/svg">
  <rect width="1200" height="900" rx="48" fill="#06101D"/>
  <rect x="74" y="74" width="1052" height="752" rx="36" fill="#0A152A"/>
  <rect x="120" y="138" width="960" height="624" rx="32" fill="url(#frame)"/>
  <rect x="176" y="200" width="220" height="500" rx="24" fill="#101F3C"/>
  <rect x="432" y="200" width="236" height="210" rx="24" fill="#112748"/>
  <rect x="700" y="200" width="320" height="210" rx="24" fill="#112748"/>
  <rect x="432" y="442" width="588" height="258" rx="24" fill="#0F1E39"/>
  <path d="M510 618H944" stroke="#E8EEFF" stroke-opacity="0.18" stroke-width="18" stroke-linecap="round"/>
  <path d="M510 566C586 536 666 500 752 492C823 485 883 502 946 548" stroke="#79D5FF" stroke-width="10" stroke-linecap="round"/>
  <circle cx="752" cy="492" r="14" fill="#8B6FFF"/>
  <circle cx="946" cy="548" r="14" fill="#4D8BFF"/>
  <defs>
    <linearGradient id="frame" x1="190" y1="170" x2="980" y2="738" gradientUnits="userSpaceOnUse">
      <stop stop-color="#0B1830"/>
      <stop offset="1" stop-color="#0D1731"/>
    </linearGradient>
  </defs>
</svg>
