<svg width="1200" height="900" viewBox="0 0 1200 900" fill="none" xmlns="http://www.w3.org/2000/svg">
  <rect width="1200" height="900" rx="48" fill="#07111D"/>
  <rect x="72" y="72" width="1056" height="756" rx="36" fill="#091425"/>
  <rect x="126" y="134" width="948" height="632" rx="34" fill="url(#bg)"/>
  <circle cx="322" cy="292" r="144" fill="url(#glow)"/>
  <rect x="190" y="192" width="312" height="402" rx="32" fill="#0F2342"/>
  <rect x="548" y="192" width="336" height="148" rx="26" fill="#132A4F"/>
  <rect x="548" y="374" width="336" height="110" rx="26" fill="#101F3D"/>
  <rect x="548" y="518" width="336" height="76" rx="26" fill="#101F3D"/>
  <rect x="190" y="632" width="694" height="48" rx="24" fill="#EDF2FF" fill-opacity="0.12"/>
  <path d="M254 432C298 380 342 360 384 374C432 390 444 470 496 470" stroke="#AFC3FF" stroke-width="10" stroke-linecap="round"/>
  <defs>
    <linearGradient id="bg" x1="200" y1="160" x2="980" y2="710" gradientUnits="userSpaceOnUse">
      <stop stop-color="#0C1730"/>
      <stop offset="1" stop-color="#0B1830"/>
    </linearGradient>
    <radialGradient id="glow" cx="0" cy="0" r="1" gradientUnits="userSpaceOnUse" gradientTransform="translate(322 292) rotate(90) scale(144)">
      <stop stop-color="#4D8BFF"/>
      <stop offset="1" stop-color="#4D8BFF" stop-opacity="0"/>
    </radialGradient>
  </defs>
</svg>
